<svg width="264" height="286" viewBox="0 0 264 286" fill="none" xmlns="http://www.w3.org/2000/svg">
<path d="M132 286C198.274 286 252 235.728 252 173.714C252 111.701 198.274 61.4286 132 61.4286C65.7258 61.4286 12 111.701 12 173.714C12 235.728 65.7258 286 132 286Z" fill="#E6E6E6"/>
<mask id="mask0_4_207" style="mask-type:alpha" maskUnits="userSpaceOnUse" x="12" y="61" width="240" height="225">
<path d="M132 286C198.274 286 252 235.728 252 173.714C252 111.701 198.274 61.4286 132 61.4286C65.7258 61.4286 12 111.701 12 173.714C12 235.728 65.7258 286 132 286Z" fill="white"/>
</mask>
<g mask="url(#mask0_4_207)">
<path d="M252 61.4286H12V286H252V61.4286Z" fill="#2C3E50"/>
</g>
<mask id="mask1_4_207" style="mask-type:alpha" maskUnits="userSpaceOnUse" x="0" y="24" width="264" height="262">
<path fill-rule="evenodd" clip-rule="evenodd" d="M12 173.714C12 235.752 65.7 286 132 286C198.3 286 252 235.752 252 173.714H264V24H0V173.714H12Z" fill="white"/>
</mask>
<g mask="url(#mask1_4_207)">
<path fill-rule="evenodd" clip-rule="evenodd" d="M156 192.99V210.207H160C199.8 210.207 232 240.337 232 277.579V286H32V277.579C32 240.337 64.2 210.207 104 210.207H108V192.99C90.8 185.317 78.4 169.691 76.3 151.164C70.5 150.415 66 145.736 66 140.029V126.929C66 121.408 70.3 116.729 76 115.887V110.086C76 81.1721 101.1 57.6857 132 57.6857C162.9 57.6857 188 81.1721 188 110.086V115.887C193.7 116.823 198 121.408 198 126.929V140.029C198 145.736 193.5 150.415 187.7 151.164C185.6 169.691 173.2 185.317 156 192.99Z" fill="#D0C6AC"/>
<mask id="mask2_4_207" style="mask-type:alpha" maskUnits="userSpaceOnUse" x="32" y="57" width="200" height="229">
<path fill-rule="evenodd" clip-rule="evenodd" d="M156 192.99V210.207H160C199.8 210.207 232 240.337 232 277.579V286H32V277.579C32 240.337 64.2 210.207 104 210.207H108V192.99C90.8 185.317 78.4 169.691 76.3 151.164C70.5 150.415 66 145.736 66 140.029V126.929C66 121.408 70.3 116.729 76 115.887V110.086C76 81.1721 101.1 57.6857 132 57.6857C162.9 57.6857 188 81.1721 188 110.086V115.887C193.7 116.823 198 121.408 198 126.929V140.029C198 145.736 193.5 150.415 187.7 151.164C185.6 169.691 173.2 185.317 156 192.99Z" fill="white"/>
</mask>
<g mask="url(#mask2_4_207)">
<path d="M264 57.6857H0V286H264V57.6857Z" fill="#EDB98A"/>
</g>
<mask id="mask3_4_207" style="mask-type:alpha" maskUnits="userSpaceOnUse" x="32" y="57" width="200" height="229">
<path fill-rule="evenodd" clip-rule="evenodd" d="M156 192.99V210.207H160C199.8 210.207 232 240.337 232 277.579V286H32V277.579C32 240.337 64.2 210.207 104 210.207H108V192.99C90.8 185.317 78.4 169.691 76.3 151.164C70.5 150.415 66 145.736 66 140.029V126.929C66 121.408 70.3 116.729 76 115.887V110.086C76 81.1721 101.1 57.6857 132 57.6857C162.9 57.6857 188 81.1721 188 110.086V115.887C193.7 116.823 198 121.408 198 126.929V140.029C198 145.736 193.5 150.415 187.7 151.164C185.6 169.691 173.2 185.317 156 192.99Z" fill="white"/>
</mask>
<g mask="url(#mask3_4_207)">
<path fill-rule="evenodd" clip-rule="evenodd" d="M188 131.607V153.128C188 182.042 162.9 205.528 132 205.528C101.1 205.528 76 182.042 76 153.128V131.607V145.643C76 174.556 101.1 198.043 132 198.043C162.9 198.043 188 174.556 188 145.643V131.607Z" fill="black" fill-opacity="0.1"/>
</g>
<path fill-rule="evenodd" clip-rule="evenodd" d="M166 210.488C203 213.295 232 242.302 232 277.672V286H32V277.672C32 242.021 61.6 212.827 99 210.394C99 210.769 99 211.049 99 211.424C99 222.559 114 231.541 132.5 231.541C151 231.541 166 222.559 166 211.424C166 211.143 166 210.769 166 210.488Z" fill="#E6E6E6"/>
<mask id="mask4_4_207" style="mask-type:alpha" maskUnits="userSpaceOnUse" x="32" y="210" width="200" height="76">
<path fill-rule="evenodd" clip-rule="evenodd" d="M166 210.488C203 213.295 232 242.302 232 277.672V286H32V277.672C32 242.021 61.6 212.827 99 210.394C99 210.769 99 211.049 99 211.424C99 222.559 114 231.541 132.5 231.541C151 231.541 166 222.559 166 211.424C166 211.143 166 210.769 166 210.488Z" fill="white"/>
</mask>
<g mask="url(#mask4_4_207)">
<path d="M264 183.071H0V286H264V183.071Z" fill="white"/>
</g>
<mask id="mask5_4_207" style="mask-type:alpha" maskUnits="userSpaceOnUse" x="32" y="210" width="200" height="76">
<path fill-rule="evenodd" clip-rule="evenodd" d="M166 210.488C203 213.295 232 242.302 232 277.672V286H32V277.672C32 242.021 61.6 212.827 99 210.394C99 210.769 99 211.049 99 211.424C99 222.559 114 231.541 132.5 231.541C151 231.541 166 222.559 166 211.424C166 211.143 166 210.769 166 210.488Z" fill="white"/>
</mask>
<g mask="url(#mask5_4_207)">
<g opacity="0.6">
<g opacity="0.6">
<path opacity="0.6" d="M132.5 237.998C154.371 237.998 172.1 226.729 172.1 212.827C172.1 198.926 154.371 187.656 132.5 187.656C110.63 187.656 92.9 198.926 92.9 212.827C92.9 226.729 110.63 237.998 132.5 237.998Z" fill="black" fill-opacity="0.16"/>
</g>
</g>
</g>
<path fill-rule="evenodd" clip-rule="evenodd" d="M113.1 163.515C114.2 172.404 122.2 179.329 132 179.329C141.8 179.329 149.9 172.404 150.9 163.421C151 162.673 150.1 161.55 149.1 161.55C134.2 161.55 122.8 161.55 115.1 161.55C114 161.55 113 162.673 113.1 163.515Z" fill="black" fill-opacity="0.7"/>
<mask id="mask6_4_207" style="mask-type:alpha" maskUnits="userSpaceOnUse" x="113" y="161" width="38" height="19">
<path fill-rule="evenodd" clip-rule="evenodd" d="M113.1 163.515C114.2 172.404 122.2 179.329 132 179.329C141.8 179.329 149.9 172.404 150.9 163.421C151 162.673 150.1 161.55 149.1 161.55C134.2 161.55 122.8 161.55 115.1 161.55C114 161.55 113 162.673 113.1 163.515Z" fill="white"/>
</mask>
<g mask="url(#mask6_4_207)">
<path fill-rule="evenodd" clip-rule="evenodd" d="M122 151.257H143C145.8 151.257 148 153.316 148 155.936V161.55C148 164.17 145.8 166.229 143 166.229H122C119.2 166.229 117 164.17 117 161.55V155.936C117 153.316 119.2 151.257 122 151.257Z" fill="white"/>
</g>
<mask id="mask7_4_207" style="mask-type:alpha" maskUnits="userSpaceOnUse" x="113" y="161" width="38" height="19">
<path fill-rule="evenodd" clip-rule="evenodd" d="M113.1 163.515C114.2 172.404 122.2 179.329 132 179.329C141.8 179.329 149.9 172.404 150.9 163.421C151 162.673 150.1 161.55 149.1 161.55C134.2 161.55 122.8 161.55 115.1 161.55C114 161.55 113 162.673 113.1 163.515Z" fill="white"/>
</mask>
<g mask="url(#mask7_4_207)">
<path d="M127 192.429C133.075 192.429 138 187.82 138 182.136C138 176.451 133.075 171.843 127 171.843C120.925 171.843 116 176.451 116 182.136C116 187.82 120.925 192.429 127 192.429Z" fill="#FF4F6D"/>
<path d="M137 192.429C143.075 192.429 148 187.82 148 182.136C148 176.451 143.075 171.843 137 171.843C130.925 171.843 126 176.451 126 182.136C126 187.82 130.925 192.429 137 192.429Z" fill="#FF4F6D"/>
</g>
<path fill-rule="evenodd" clip-rule="evenodd" d="M120 145.643C120 149.76 125.4 153.129 132 153.129C138.6 153.129 144 149.76 144 145.643" fill="black" fill-opacity="0.16"/>
<path fill-rule="evenodd" clip-rule="evenodd" d="M92.2 129.174C94 125.619 98.2 123.186 103 123.186C107.8 123.186 112 125.619 113.8 129.174C114.4 130.204 113.6 131.046 112.8 130.484C110.3 128.519 106.9 127.303 103 127.303C99.3 127.303 95.9 128.426 93.4 130.297C92.5 130.952 91.6 130.297 92.2 129.174Z" fill="black" fill-opacity="0.6"/>
<path fill-rule="evenodd" clip-rule="evenodd" d="M150.2 129.174C152 125.619 156.2 123.186 161 123.186C165.8 123.186 170 125.619 171.8 129.174C172.4 130.204 171.6 131.046 170.8 130.484C168.3 128.519 164.9 127.303 161 127.303C157.3 127.303 153.9 128.426 151.4 130.297C150.5 130.952 149.6 130.297 150.2 129.174Z" fill="black" fill-opacity="0.6"/>
<path fill-rule="evenodd" clip-rule="evenodd" d="M102.5 106.436C96.7 106.717 87.3 110.647 87.5 116.074C87.5 116.261 87.8 116.355 87.9 116.168C90.7 113.361 110.2 110.647 117.1 112.051C117.7 112.144 118.2 111.583 117.8 111.209C114.5 107.746 107.7 106.249 102.5 106.436Z" fill="black" fill-opacity="0.6"/>
<path fill-rule="evenodd" clip-rule="evenodd" d="M162.5 106.436C168.3 106.717 177.7 110.647 177.5 116.074C177.5 116.261 177.2 116.355 177.1 116.168C174.3 113.361 154.8 110.647 147.9 112.051C147.3 112.144 146.8 111.583 147.2 111.209C150.5 107.746 157.3 106.249 162.5 106.436Z" fill="black" fill-opacity="0.6"/>
<mask id="mask8_4_207" style="mask-type:alpha" maskUnits="userSpaceOnUse" x="0" y="24" width="264" height="262">
<path d="M264 24H0V286H264V24Z" fill="white"/>
</mask>
<g mask="url(#mask8_4_207)">
<path fill-rule="evenodd" clip-rule="evenodd" d="M182.7 60.3993C188.1 55.7208 189.4 46.3636 186.3 40.2815C182.5 32.7958 174.9 31.86 167.6 35.135C160.7 38.2229 154.5 39.2522 147 37.755C139.7 36.3515 132.9 33.7315 125.4 33.3572C113 32.7022 101 37.0065 92.6 45.615C91 47.2993 89.7 49.1708 88.5 51.0422C87.5 52.5393 86.4 54.2236 86 56.0015C85.8 56.8436 86.2 58.9022 85.7 59.5572C85.2 60.3058 83.4 60.9608 82.6 61.5222C81 62.645 79.7 63.8615 78.4 65.265C75.7 68.2593 74.3 71.4408 73 75.1836C68.9 87.535 68.5 102.319 73.9 114.484C74.6 116.074 76.8 119.536 78.1 115.981C78.4 115.326 77.8 112.986 77.8 112.331C77.8 109.805 79.3 92.9622 85.8 83.5115C87.9 80.4236 97.8 68.9143 99.8 68.8208C100.9 70.4115 111.7 80.5172 139.7 79.3008C152.4 78.7393 162.1 73.4058 164.4 71.16C165.4 76.3065 177.4 84.0729 179.2 87.2543C184.5 96.4243 185.6 115.606 187.6 115.606C189.6 115.606 191.1 110.741 191.5 109.805C194.6 102.881 195.1 94.2722 194.8 86.7865C194.5 77.3358 190.3 66.9493 182.7 60.3993Z" fill="#28354B"/>
<mask id="mask9_4_207" style="mask-type:alpha" maskUnits="userSpaceOnUse" x="69" y="33" width="126" height="85">
<path fill-rule="evenodd" clip-rule="evenodd" d="M182.7 60.3993C188.1 55.7208 189.4 46.3636 186.3 40.2815C182.5 32.7958 174.9 31.86 167.6 35.135C160.7 38.2229 154.5 39.2522 147 37.755C139.7 36.3515 132.9 33.7315 125.4 33.3572C113 32.7022 101 37.0065 92.6 45.615C91 47.2993 89.7 49.1708 88.5 51.0422C87.5 52.5393 86.4 54.2236 86 56.0015C85.8 56.8436 86.2 58.9022 85.7 59.5572C85.2 60.3058 83.4 60.9608 82.6 61.5222C81 62.645 79.7 63.8615 78.4 65.265C75.7 68.2593 74.3 71.4408 73 75.1836C68.9 87.535 68.5 102.319 73.9 114.484C74.6 116.074 76.8 119.536 78.1 115.981C78.4 115.326 77.8 112.986 77.8 112.331C77.8 109.805 79.3 92.9622 85.8 83.5115C87.9 80.4236 97.8 68.9143 99.8 68.8208C100.9 70.4115 111.7 80.5172 139.7 79.3008C152.4 78.7393 162.1 73.4058 164.4 71.16C165.4 76.3065 177.4 84.0729 179.2 87.2543C184.5 96.4243 185.6 115.606 187.6 115.606C189.6 115.606 191.1 110.741 191.5 109.805C194.6 102.881 195.1 94.2722 194.8 86.7865C194.5 77.3358 190.3 66.9493 182.7 60.3993Z" fill="white"/>
</mask>
<g mask="url(#mask9_4_207)">
<path d="M263 24H-1V286H263V24Z" fill="#4A312C"/>
</g>
</g>
</g>
<path d="M114.904 9.64377C123.556 3.79786 134.866 3.6949 143.623 9.38232L234.845 68.6303C239.02 71.3418 237.1 77.8235 232.122 77.8235H30.3306C25.3996 77.8235 23.4455 71.4413 27.5313 68.6806L114.904 9.64377Z" fill="#D8C250"/>
<ellipse cx="131.5" cy="78.2206" rx="109.5" ry="29.7794" fill="#D8C250"/>
</svg>
